<svg width="526" height="170" viewBox="0 0 526 170" fill="none" xmlns="http://www.w3.org/2000/svg">
<path d="M227.075 25.568C227.107 26.528 227.107 27.392 227.107 28.32C227.107 29.024 227.107 29.792 227.267 30.464C227.459 31.36 227.843 32 228.547 32.416L229.731 33.6C230.147 34.016 230.723 34.272 231.491 34.368C232.131 34.432 232.739 34.4 233.379 34.368C233.667 34.336 233.891 34.336 234.115 34.336C234.275 34.336 234.467 34.336 234.691 34.272C235.843 33.92 236.579 33.088 236.675 31.84C236.675 31.392 236.643 31.008 236.611 30.752C236.515 29.856 236.419 28.992 236.419 28.224C236.451 25.888 236.323 23.424 236.195 21.056C236.067 18.912 236.003 16.768 235.939 14.592C235.907 14.016 235.939 13.536 235.939 12.96V11.264C235.907 9.568 235.843 7.52 235.779 5.824V5.568C235.651 4.832 235.363 4.288 234.979 3.904L233.891 2.848C233.475 2.016 232.707 1.568 231.587 1.504H230.435C227.907 1.504 227.491 2.752 227.363 4.384C227.299 5.76 227.203 7.2 227.107 8.576C226.915 8.576 226.755 8.544 226.595 8.544V6.656C226.595 6.496 226.627 6.336 226.627 6.176C226.627 5.856 226.627 5.472 226.595 5.216C226.531 4.416 226.275 3.904 225.891 3.52L224.707 2.368C224.291 1.568 223.555 1.248 222.691 1.056C222.019 0.927998 221.379 0.895998 220.739 0.895998C219.075 0.895998 218.083 1.728 217.795 3.424C217.731 3.808 217.667 4.512 217.667 4.896C217.635 6.272 217.603 7.68 217.603 9.056C217.603 9.408 217.571 9.76 217.571 10.112V11.328C217.507 12.992 217.475 14.752 217.443 16.448L217.379 19.616C217.379 19.808 217.347 20 217.347 20.16V20.672C217.315 21.088 217.283 22.208 217.283 22.784C217.251 24.96 217.251 27.136 217.251 29.28C217.251 29.664 217.251 30.272 217.283 30.624C217.283 30.912 217.347 31.328 217.443 31.616C217.699 32.352 218.083 32.896 218.659 33.184L219.811 34.336C220.227 34.752 220.771 34.976 221.475 35.008C222.467 35.04 223.491 34.944 224.483 34.752L224.515 34.784C224.899 34.72 225.155 34.656 225.411 34.56C226.467 34.144 227.171 33.408 227.267 32.256C227.299 31.936 227.299 31.488 227.267 31.136L227.171 30.336C227.107 29.728 227.011 29.184 226.979 28.576C226.851 26.912 226.755 25.216 226.659 23.52C226.627 23.168 226.627 22.816 226.627 22.464C226.627 21.92 226.595 21.088 226.563 20.512V17.248H226.947C226.979 18.496 226.979 19.744 226.979 20.992V22.08H226.915C226.979 23.008 227.043 24.608 227.075 25.568ZM228.579 22.624V20.992C228.579 19.328 228.579 17.696 228.547 16.064C228.547 15.808 228.515 15.584 228.483 15.36C228.387 14.656 228.035 14.304 227.299 14.24C226.979 14.176 226.627 14.176 226.307 14.144H224.771C224.579 14.144 224.419 14.144 224.259 14.176C223.747 14.304 223.523 14.528 223.491 15.072C223.459 15.488 223.459 15.904 223.459 16.352V18.976C223.491 19.616 223.523 20.256 223.523 20.864C223.523 21.248 223.523 21.664 223.555 22.016C223.651 23.712 223.747 25.408 223.875 27.072C223.939 27.968 224.067 28.864 224.163 29.728C224.195 29.984 224.195 30.208 224.163 30.432C224.131 30.976 223.811 31.328 223.299 31.52C223.107 31.584 222.915 31.648 222.691 31.68C221.795 31.84 220.867 31.936 219.971 31.904C219.459 31.872 219.139 31.616 218.979 31.136C218.915 30.912 218.883 30.72 218.883 30.496C218.851 30.112 218.851 29.696 218.851 29.28C218.851 27.136 218.851 24.992 218.883 22.816C218.883 21.76 218.947 20.704 218.979 19.616L219.043 16.448C219.075 14.752 219.107 13.056 219.171 11.392V11.136C219.203 9.056 219.203 6.976 219.267 4.928C219.267 4.512 219.299 4.064 219.363 3.648C219.491 2.88 219.939 2.496 220.739 2.496C221.283 2.496 221.827 2.528 222.371 2.624C222.979 2.752 223.427 2.976 223.491 3.808C223.523 4.064 223.523 4.32 223.523 4.576C223.523 4.896 223.491 5.184 223.491 5.472V7.52C223.491 7.872 223.459 8.256 223.459 8.608C223.459 8.768 223.459 8.96 223.491 9.12C223.523 9.728 223.747 9.952 224.323 10.08C224.515 10.112 224.707 10.144 224.899 10.144C225.731 10.144 226.595 10.144 227.459 10.176H227.587C228.227 10.176 228.547 9.984 228.675 9.184C228.707 9.056 228.707 8.928 228.707 8.8C228.803 7.36 228.899 5.92 228.963 4.48C229.027 3.712 229.251 3.104 230.435 3.104C230.819 3.104 231.171 3.072 231.523 3.104C232.195 3.136 232.547 3.456 232.675 4.096V4.288C232.739 6.08 232.803 7.872 232.835 9.664C232.867 10.784 232.803 11.904 232.835 13.056C232.899 15.232 232.963 17.408 233.091 19.552C233.219 21.92 233.347 24.256 233.315 26.592C233.315 27.52 233.411 28.416 233.507 29.344C233.539 29.6 233.571 29.888 233.571 30.176C233.539 30.72 233.251 31.072 232.707 31.2C232.643 31.232 232.579 31.232 232.515 31.232C231.715 31.232 230.915 31.36 230.083 31.264C229.347 31.168 228.963 30.816 228.835 30.112C228.707 29.536 228.707 28.928 228.707 28.32C228.707 27.392 228.707 26.464 228.675 25.504C228.643 24.544 228.611 23.584 228.547 22.656L228.579 22.624ZM238.438 33.536C238.79 33.888 239.302 34.112 239.942 34.272C240.294 34.368 240.582 34.432 240.966 34.432H242.054C244.07 34.368 244.966 33.536 245.094 31.52C245.094 31.008 245.126 30.528 245.158 30.048L245.286 26.272C245.318 25.44 245.286 24.64 245.222 23.84C245.158 22.912 245.158 22.048 245.158 21.12C245.158 20.704 245.126 20.256 245.126 19.84C245.094 19.008 245.062 18.208 245.062 17.408C245.062 16.448 245.062 15.52 245.094 14.56C245.094 13.6 245.126 12.608 245.126 11.648V9.824C245.126 9.152 245.094 8.48 245.094 7.744V6.592C245.062 6.432 245.062 6.272 245.062 6.048C244.998 5.312 244.742 4.704 244.326 4.288L243.174 3.168C242.79 2.464 242.086 2.016 241.126 1.888C240.806 1.856 240.39 1.824 240.006 1.824C239.558 1.824 239.078 1.856 238.726 1.952C237.446 2.272 236.614 3.104 236.294 4.352C236.198 4.704 236.166 5.056 236.134 5.408C236.134 5.664 236.102 5.888 236.102 6.08V6.656C236.102 7.328 236.07 7.968 236.038 8.64L235.846 12.608C235.75 14.144 235.654 15.744 235.654 17.312C235.622 17.792 235.654 18.432 235.686 18.88C235.686 19.04 235.718 19.2 235.718 19.36C235.75 19.808 235.782 20.128 235.782 20.384L235.846 21.76V21.92C235.91 22.752 235.974 23.552 235.974 24.384C236.006 25.504 236.006 26.624 236.006 27.776V29.216C236.006 29.536 236.006 29.952 236.038 30.208C236.166 31.136 236.518 31.808 237.126 32.224L238.438 33.536ZM241.99 6.144C241.99 7.552 242.022 8.8 242.022 10.048C242.022 11.968 241.958 13.888 241.958 15.808C241.958 17.024 242.022 18.272 242.054 19.52C242.054 20.448 242.054 21.408 242.118 22.368C242.182 23.136 242.214 23.872 242.182 24.608L242.054 28.384C242.022 28.864 241.99 29.344 241.99 29.856C241.926 30.88 241.478 31.296 240.454 31.328H239.366C239.142 31.328 238.95 31.296 238.726 31.232C238.022 31.072 237.702 30.752 237.638 30.016C237.574 29.664 237.606 29.312 237.606 28.928C237.606 27.392 237.638 25.856 237.574 24.352C237.574 23.008 237.446 21.696 237.382 20.384C237.35 19.392 237.222 18.368 237.254 17.376C237.254 15.808 237.35 14.24 237.446 12.672L237.638 8.704C237.702 7.68 237.702 6.656 237.734 5.632C237.766 5.312 237.798 4.992 237.862 4.704C238.022 4.064 238.374 3.648 239.046 3.52C239.686 3.392 240.326 3.392 240.966 3.488C241.574 3.552 241.894 3.968 241.958 4.608C241.958 4.8 241.958 4.96 241.99 5.12V6.144ZM254.97 26.176C254.586 26.176 254.298 26.208 254.074 26.24V26.272H253.786C252.57 26.496 251.866 27.2 251.386 28.288C251.322 28.448 251.258 28.768 251.226 29.088L251.13 30.208C251.13 30.624 251.162 31.008 251.226 31.296C251.354 31.904 251.61 32.384 251.994 32.768C251.514 33.12 251.162 33.632 250.97 34.272C250.586 35.712 251.226 37.28 252.506 38.048L253.498 39.04C253.754 39.296 254.042 39.52 254.362 39.68C255.002 39.968 255.802 40.128 256.506 40.128C256.922 40.128 257.402 40.064 257.882 39.936C259.258 39.52 260.282 38.592 260.89 37.408C261.242 36.704 261.434 35.968 261.594 35.232C261.818 34.304 261.882 33.344 261.882 32.384C261.882 31.776 261.85 31.168 261.786 30.624C261.658 29.728 261.434 29.088 261.018 28.672L259.834 27.488C259.386 26.72 258.65 26.368 257.434 26.176H257.37C257.37 26.176 257.338 26.176 257.306 26.144L254.97 26.176ZM256.922 27.744C257.05 27.776 257.146 27.744 257.242 27.776C258.202 27.904 258.554 28.256 258.682 29.184C258.874 30.56 258.81 31.936 258.522 33.28C258.394 33.888 258.234 34.528 257.946 35.104C257.498 35.968 256.858 36.64 255.898 36.896C255.034 37.12 254.202 37.056 253.402 36.704C252.634 36.352 252.282 35.52 252.506 34.72C252.634 34.304 252.89 34.016 253.338 33.92L254.01 33.76C254.33 33.696 254.586 33.536 254.81 33.248C254.938 33.12 255.002 32.928 255.002 32.736C255.002 32.352 254.842 32.064 254.458 31.968C254.202 31.936 253.946 31.904 253.69 31.84C253.21 31.776 252.89 31.488 252.794 30.976C252.762 30.784 252.73 30.56 252.73 30.336L252.826 29.28C252.858 29.088 252.89 28.896 252.954 28.704C253.146 28.256 253.434 27.968 253.946 27.872C254.298 27.84 254.65 27.776 255.002 27.776L256.922 27.744ZM269.774 33.92C270.126 34.272 270.606 34.496 271.15 34.656C271.854 34.816 272.654 34.88 273.39 34.784C274.478 34.72 275.246 34.048 275.598 33.024C275.726 32.544 275.79 32.192 275.79 31.872C275.79 30.688 275.95 29.312 276.078 27.968C276.11 27.424 276.206 26.72 276.238 26.176L276.43 23.392C276.43 22.976 276.494 22.56 276.494 22.144L276.686 18.752C276.718 18.112 276.686 17.344 276.686 16.704V15.744L276.782 12.704V11.904L276.846 6.912C276.846 6.496 276.846 6.112 276.75 5.472L276.782 5.504C276.654 4.736 276.462 4.128 276.046 3.712L274.734 2.4C274.318 1.824 273.646 1.44 272.622 1.344C271.886 1.248 270.99 1.312 270.35 1.472V1.504C269.422 1.728 268.75 2.304 268.43 3.136C268.238 3.52 268.174 3.936 268.142 4.352C268.11 4.864 268.078 5.504 268.078 6.016C268.078 6.208 268.046 6.592 268.046 6.784C268.014 7.008 268.014 7.328 268.014 7.552L267.822 11.2C267.758 12.16 267.694 13.184 267.662 14.144C267.662 14.4 267.63 14.976 267.63 15.264C267.598 15.584 267.598 16.032 267.598 16.352L267.374 20.608L267.278 24.544V29.408C267.278 29.792 267.278 30.272 267.374 30.784C267.566 31.648 267.95 32.256 268.526 32.672L269.774 33.92ZM273.678 11.072L273.582 14.144C273.582 15.104 273.614 16.096 273.582 17.056L273.39 20.448L273.326 21.728L273.134 24.48C272.974 26.4 272.686 28.32 272.686 30.272C272.686 30.496 272.654 30.72 272.59 30.944C272.43 31.392 272.11 31.68 271.63 31.68C271.054 31.744 270.51 31.712 269.934 31.584C269.39 31.424 269.038 31.104 268.942 30.528C268.846 30.048 268.878 29.6 268.878 29.12V27.2C268.878 26.336 268.846 25.472 268.878 24.576L268.974 20.64L269.198 16.352L269.262 14.176C269.294 13.216 269.358 12.256 269.422 11.296L269.614 7.552C269.678 6.528 269.678 5.504 269.742 4.48C269.774 4.224 269.806 3.968 269.902 3.744C270.062 3.36 270.35 3.104 270.766 3.04C271.31 2.912 271.886 2.88 272.462 2.944C273.294 3.008 273.582 3.392 273.678 4.096C273.742 4.512 273.742 4.896 273.742 5.312L273.678 10.304V11.072ZM278.373 17.76C278.757 18.176 279.301 18.4 280.005 18.528H280.037C280.613 18.656 281.221 18.752 281.765 18.784C283.365 18.912 284.485 18.112 284.709 16.48C284.709 16.384 284.741 16.192 284.773 16.032C284.837 15.264 284.901 14.272 284.933 13.504C284.997 12.576 285.029 11.616 285.061 10.72L285.125 9.248V7.744C285.125 7.328 285.125 6.88 285.029 6.368H285.061C284.997 5.664 284.709 5.024 284.261 4.576L283.141 3.488C282.725 2.752 281.989 2.24 281.061 2.144C280.965 2.144 280.773 2.112 280.645 2.112C280.357 2.08 279.941 2.016 279.685 2.016C279.237 2.016 278.789 2.048 278.373 2.144C276.997 2.464 276.037 3.2 275.845 4.896C275.813 5.152 275.813 5.728 275.845 6.048C275.845 6.208 275.877 6.304 275.877 6.4V12.224C275.877 12.768 275.909 13.28 275.909 13.792V14.08C275.973 15.296 276.389 16.128 277.221 16.608L278.373 17.76ZM282.021 7.648C281.957 8.992 281.925 10.4 281.829 11.808C281.797 12.64 281.733 13.472 281.669 14.304L281.605 14.688C281.509 15.392 280.997 15.744 280.293 15.68C279.781 15.648 279.237 15.552 278.725 15.456C277.925 15.328 277.541 14.848 277.509 14.048V13.792C277.509 11.68 277.477 9.568 277.477 7.456C277.477 6.944 277.445 6.4 277.445 5.856C277.413 5.6 277.413 5.344 277.445 5.12C277.541 4.256 278.021 3.872 278.725 3.712C279.461 3.584 280.165 3.616 280.901 3.744C281.509 3.808 281.893 4.288 281.957 4.928C282.021 5.312 282.021 5.728 282.021 6.144V7.648ZM303.451 34.368C303.867 34.784 304.443 35.04 305.147 35.104C305.755 35.136 306.427 35.136 307.003 35.072C308.347 34.944 309.115 34.112 309.403 32.864C309.499 32.48 309.563 32.192 309.563 31.808C309.595 30.944 309.595 30.016 309.595 29.184C309.595 28.64 309.563 28.096 309.563 27.552C309.531 26.464 309.499 25.408 309.499 24.32V18.432L309.371 13.664C309.307 11.52 309.147 9.248 308.795 6.976C308.795 6.752 308.731 6.56 308.699 6.4V6.272C308.571 5.632 308.283 5.12 307.899 4.736L306.843 3.712C306.299 2.72 305.307 2.24 304.091 2.272C303.643 2.304 303.291 2.336 302.939 2.432V2.464C302.235 2.56 301.563 2.624 300.987 2.624C300.507 2.656 300.091 2.688 299.739 2.752C298.587 2.912 297.883 3.584 297.467 4.544C297.307 4.896 297.179 5.312 297.115 5.568L296.827 6.752C296.635 6.208 296.379 5.792 296.091 5.472L295.067 4.448C294.555 3.52 293.723 3.072 292.507 3.008C291.995 3.008 291.291 3.008 290.747 3.04C290.235 3.104 289.563 3.104 289.051 3.072C288.475 3.008 287.643 3.008 286.939 3.008C285.627 3.104 284.827 3.776 284.475 4.864C284.283 5.44 284.283 6.016 284.283 6.528V19.072C284.283 19.904 284.315 21.28 284.347 22.176C284.347 22.432 284.347 23.168 284.379 23.424C284.379 23.616 284.411 23.776 284.411 23.936V30.496C284.507 31.84 284.987 32.704 285.915 33.184L286.939 34.208C287.387 34.656 287.995 34.944 288.795 35.072C289.019 35.136 289.083 35.104 289.275 35.104H290.523C292.187 35.04 293.051 34.336 293.339 32.8C293.371 32.8 293.371 32.832 293.403 32.832L294.651 34.08C295.099 34.528 295.739 34.784 296.475 34.848C296.731 34.848 297.211 34.912 297.499 34.912H297.531C299.483 34.944 300.347 34.368 300.827 32.384L300.795 32.352C300.891 32 300.955 31.712 301.019 31.36C301.211 32.224 301.659 32.864 302.299 33.216L303.451 34.368ZM300.891 14.336C300.699 15.104 300.539 15.904 300.379 16.704C300.123 17.952 299.899 19.2 299.675 20.48L299.227 23.04L297.979 29.312C297.915 29.696 297.851 30.08 297.755 30.432C297.499 31.52 297.019 31.84 295.931 31.808L295.035 31.744C294.395 31.68 293.947 31.36 293.787 30.72C293.691 30.368 293.627 30.016 293.563 29.664C293.403 28.448 293.243 27.2 293.051 25.984C292.923 25.12 292.795 24.256 292.635 23.424L291.899 19.328C291.707 18.24 291.483 17.184 291.259 16.128C291.163 15.808 291.067 15.52 290.939 15.232C290.907 15.136 290.875 14.976 290.747 14.976C290.459 15.008 290.491 15.552 290.491 15.84C290.459 16.416 290.459 16.96 290.491 17.504C290.523 18.976 290.491 20.416 290.395 21.856V22.176C290.395 24.608 290.363 27.04 290.363 29.472C290.363 29.76 290.363 30.08 290.331 30.368C290.331 30.496 290.331 30.624 290.299 30.752C290.171 31.616 289.755 31.968 288.891 32H287.675C287.611 32 287.547 32 287.483 31.968C286.491 31.872 286.075 31.424 286.011 30.432V24.416C286.011 23.68 285.947 22.912 285.947 22.144C285.915 21.12 285.883 20.096 285.883 19.072V6.528C285.883 6.144 285.883 5.76 286.011 5.376C286.171 4.896 286.491 4.64 287.003 4.608C287.643 4.608 288.315 4.608 288.987 4.672C289.627 4.704 290.235 4.704 290.875 4.64C291.419 4.608 291.963 4.608 292.475 4.608C293.179 4.64 293.595 4.96 293.819 5.632C293.915 5.984 293.979 6.368 294.043 6.752L294.939 11.968C295.067 12.736 295.099 13.536 295.195 14.304L295.355 16.416L295.483 17.312C295.515 17.504 295.611 17.728 295.771 17.824C296.027 17.824 296.091 17.632 296.155 17.44C296.315 16.96 296.475 16.48 296.571 15.968C296.795 15.104 296.987 14.24 297.147 13.344L297.787 9.952C298.075 8.608 298.363 7.296 298.683 5.952C298.747 5.696 298.811 5.44 298.939 5.184C299.131 4.704 299.451 4.416 299.963 4.352C300.315 4.288 300.699 4.256 301.051 4.224C301.787 4.224 302.491 4.128 303.195 4.032C303.547 3.968 303.867 3.904 304.219 3.872C304.923 3.84 305.435 4.16 305.595 4.864C305.627 5.056 305.691 5.216 305.691 5.408C306.043 7.648 306.203 9.856 306.267 12.096L306.395 16.832C306.395 18.784 306.363 20.768 306.395 22.72C306.395 24.352 306.459 25.952 306.491 27.584C306.491 28.416 306.491 29.28 306.459 30.144C306.459 30.4 306.427 30.656 306.363 30.88C306.235 31.552 305.883 31.936 305.211 31.968C304.699 32.032 304.187 32.032 303.675 32C303.067 31.936 302.683 31.584 302.587 30.912C302.555 30.464 302.555 29.984 302.587 29.536C302.683 27.68 302.715 25.824 302.619 23.968C302.587 22.976 302.427 21.984 302.331 20.96C302.171 19.232 301.947 17.504 301.883 15.744C301.883 15.168 301.787 14.592 301.627 14.048C301.339 13.216 300.987 13.984 300.891 14.336Z" fill="white"/>
<path d="M58.216 56.1449C60.5731 56.1449 63.2445 57.4806 66.2302 60.152C68.318 62.9806 69.3618 66.1234 69.3618 69.5805C69.3618 74.7662 67.3302 79.0315 63.267 82.3764L58.6874 87.1243C57.1833 88.9427 54.1752 89.8518 49.663 89.8518H45.3528C44.1181 89.8518 42.2212 89.9529 39.662 90.1549V90.4243C39.7518 92.7141 39.9426 93.859 40.2345 93.859C46.6773 93.859 50.864 95.0936 52.7946 97.563C54.5007 100.594 55.3538 103.938 55.3538 107.598C55.3538 112.581 53.7262 116.656 50.4711 119.821L46.6997 123.323C44.5671 125.209 42.5018 126.152 40.5038 126.152V131.001L40.8069 134.435C49.5395 134.054 54.5793 133.863 55.9262 133.863C59.5854 133.863 62.3466 135.861 64.2098 139.857C64.9731 142.64 65.3547 145.121 65.3547 147.298C65.3547 152.821 63.4241 157.153 59.5629 160.296L51.3803 166.459C50.0109 167.603 37.7202 168.176 14.5081 168.176C7.95302 168.176 3.66529 165.886 1.64489 161.307C1.53265 159.398 1.34183 158.444 1.07245 158.444C1.25204 157.097 1.34183 156.334 1.34183 156.155C0.780611 124.075 0.5 106.644 0.5 103.86C0.679591 99.662 0.769386 96.5191 0.769386 94.4314C0.589795 86.5968 0.5 80.2213 0.5 75.305C0.5 73.3295 1.26326 70.9387 2.78978 68.1326L7.50404 62.0714C8.55914 60.3204 11.4663 58.6255 16.2254 56.9867C18.2683 56.6051 20.457 56.4143 22.7917 56.4143H49.3599C51.7619 56.4143 54.714 56.3245 58.216 56.1449ZM34.7794 61.2969H21.3438C16.5846 61.2969 14.205 62.15 14.205 63.8561C13.7336 63.8561 13.453 65.001 13.3632 67.2907V89.01C13.3632 110.987 13.6438 129.654 14.205 145.009C14.0254 147.209 13.9356 149.308 13.9356 151.306C14.7213 153.977 17.6734 155.313 22.7917 155.313C31.9284 155.313 42.9732 155.122 55.9262 154.74C58.9792 153.887 60.5058 151.698 60.5058 148.174V145.884C60.5058 141.125 59.0803 138.745 56.2293 138.745C51.1558 138.745 46.2059 138.925 41.3794 139.284C37.563 139.284 35.6549 136.624 35.6549 131.304C35.8345 127.622 35.9243 124.378 35.9243 121.572V120.427C35.9243 117.599 37.26 115.791 39.9314 115.006C42.5804 114.445 45.3416 113.973 48.215 113.591C49.7415 112.289 50.5048 110.381 50.5048 107.867V107.295C50.5048 103.456 49.7415 100.885 48.215 99.5834C46.9803 99.2018 43.6467 98.8202 38.2141 98.4385C36.3059 97.8997 35.3518 96.6651 35.3518 94.7345C34.7906 90.8508 34.51 86.6529 34.51 82.1407C34.51 78.908 37.1702 77.2917 42.4906 77.2917C48.0354 77.2917 51.6609 77.1907 53.367 76.9886C54.1976 77.1907 55.6231 77.2917 57.6435 77.2917C62.2231 77.2917 64.5129 74.8111 64.5129 69.8499V69.2775C64.5129 65.2816 63.0874 62.7112 60.2364 61.5663L58.7884 60.9938C48.664 61.1959 40.661 61.2969 34.7794 61.2969Z" fill="white"/>
<path d="M93.6066 55.8755H95.8964C120.298 55.8755 135.642 63.9683 141.928 80.1539C145.924 89.8967 147.922 98.562 147.922 106.15V107.598C147.922 123.357 143.443 137.073 134.486 148.746C132.825 151.822 130.019 155.425 126.068 159.556C120.523 165.684 110.275 168.748 95.3239 168.748C85.7607 168.748 79.9577 167.693 77.9149 165.583C75.8047 163.563 74.7496 160.33 74.7496 155.885V149.016C74.7496 141.159 74.1771 121.157 73.0322 89.01C73.0322 82.4998 72.9424 78.5937 72.7628 77.2917C73.3465 72.757 74.772 69.2326 77.0393 66.7183L79.7332 63.3846C82.2475 60.6459 84.7842 58.6143 87.3434 57.2898C89.2964 56.3469 91.3842 55.8755 93.6066 55.8755ZM85.626 69.0081C85.626 74.6652 86.2883 97.6191 87.6128 137.87V149.588C87.6128 153.405 89.6107 155.313 93.6066 155.313C94.8862 155.694 98.0402 155.885 103.069 155.885H104.752C117.952 155.885 126.909 152.069 131.624 144.436C133.958 142.057 136.529 137.488 139.335 130.731C142.006 121.886 143.342 114.074 143.342 107.295C143.342 95.4416 139.537 83.7233 131.927 72.1397C124.047 64.5295 112.61 60.7245 97.6137 60.7245H92.1923C88.6005 60.7245 86.4117 63.4857 85.626 69.0081ZM109.063 80.7264C114.338 80.7264 118.143 88.3478 120.478 103.591C120.68 105.566 120.781 107.182 120.781 108.439C120.781 115.264 118.3 124.03 113.339 134.738C113.339 134.873 112.576 135.636 111.049 137.028H108.76C107.053 137.028 106.2 127.689 106.2 109.012V88.7069C106.2 83.3866 107.154 80.7264 109.063 80.7264Z" fill="white"/>
<path d="M216.447 55H217.592C222.485 55 225.909 56.9082 227.862 60.7245C228.446 62.8795 228.737 64.1142 228.737 64.4285C228.356 72.1285 228.165 78.4141 228.165 83.2855V89.5825C228.165 94.7232 228.255 100.055 228.434 105.577C228.434 120.506 226.055 133.84 221.296 145.581C219.679 149.195 217.154 153.27 213.719 157.804C211.609 160.611 209.465 163.058 207.288 165.145C201.945 167.929 195.951 169.321 189.306 169.321H189.003C182.56 169.321 175.511 167.693 167.856 164.438C162.603 161.183 158.888 157.086 156.71 152.147C154.263 150.127 152.456 138.79 151.289 118.137C151.289 115.758 151.57 109.281 152.131 98.7079C151.951 95.7222 151.861 92.8712 151.861 90.1549H151.558L151.861 89.5825V80.4233C151.861 79.6376 151.76 78.5937 151.558 77.2917C151.558 74.5529 152.512 71.6009 154.421 68.4356C156.396 66.4601 157.833 64.9112 158.731 63.7887C160.257 61.9928 162.446 60.0173 165.297 57.8622C167.834 56.8969 170.404 56.4143 173.008 56.4143H175.567C175.769 56.4143 175.87 56.3245 175.87 56.1449C180.315 56.1449 183.93 58.1428 186.713 62.1387C187.476 64.0469 188.049 66.4265 188.431 69.2775C188.251 82.7243 188.161 90.5365 188.161 92.7141C188.161 100.639 188.734 110.258 189.878 121.572H190.148C191.113 106.15 191.596 94.9141 191.596 87.8651C191.596 85.261 191.495 80.5917 191.293 73.857C191.293 70.9387 192.527 68.6601 194.997 67.0214C196.568 65.4948 198.084 63.8561 199.543 62.1051C202.641 57.3684 208.275 55 216.447 55ZM204.425 64.1591C204.246 68.3346 204.246 73.3744 204.425 79.2784C204.425 86.507 203.673 102.042 202.169 125.882C200.957 131.786 198.858 134.738 195.872 134.738C187.858 134.738 183.851 124.356 183.851 103.591C183.671 103.591 183.481 99.7742 183.279 92.1416C183.481 82.1968 183.582 74.2948 183.582 68.4356C182.886 63.4744 180.596 60.9938 176.712 60.9938C170.382 60.9938 166.767 61.8581 165.869 63.5867C165.106 65.001 164.624 66.7071 164.421 68.705C164.421 69.603 164.523 72.555 164.725 77.5611C164.725 78.5713 164.624 80.1988 164.421 82.4437L164.994 90.7273C164.433 98.562 164.152 105.128 164.152 110.426C165.05 128.273 166.386 138.274 168.159 140.429C170.449 146.221 174.254 150.419 179.574 153.023C185.681 155.313 191.012 156.458 195.569 156.458H197.859C209.847 156.458 217.659 147.691 221.296 130.159C222.822 121.426 223.585 113.524 223.585 106.453C223.406 93.9488 223.316 86.0355 223.316 82.7131C223.316 81.6356 223.496 75.3499 223.855 63.8561C223.855 61.7234 222.238 60.3877 219.006 59.849H215.302C210.049 59.849 206.423 61.2857 204.425 64.1591Z" fill="white"/>
<path d="M234.125 80.457C234.552 77.5386 238.839 72.1509 246.988 64.2938C253.094 58.8612 260.895 56.1449 270.391 56.1449H272.109C285.623 56.1449 293.525 61.4765 295.815 72.1397C297.139 77.1233 297.801 84.3631 297.801 93.859C297.801 105.779 297.902 116.835 298.104 127.027C297.902 132.729 297.801 140.059 297.801 149.016C297.801 155.324 296.028 160.072 292.481 163.26C289.293 166.717 284.781 168.445 278.944 168.445C268.663 168.445 263.522 165.022 263.522 158.175H263.253C262.489 158.781 261.322 160.274 259.751 162.653C257.887 166.515 253.712 168.445 247.224 168.445H243.52C238.738 168.445 235.596 166.256 234.091 161.879C233.328 160.24 232.756 139.857 232.374 100.728C232.195 91.7263 232.778 84.9692 234.125 80.457ZM244.934 95.5763C245.249 102.782 245.63 120.023 246.079 147.298C246.079 152.821 247.415 155.582 250.086 155.582H256.956C260.772 155.582 262.68 152.731 262.68 147.029V137.601C262.68 133.964 264.768 132.145 268.943 132.145H270.391C273.332 132.145 275.229 133.1 276.082 135.008C275.902 140.597 275.813 143.841 275.813 144.739C275.813 150.823 276.666 153.865 278.372 153.865C278.619 154.83 281.189 155.402 286.083 155.582H288.103C291.336 154.953 292.952 153.427 292.952 151.003C293.154 137.376 293.255 126.993 293.255 119.855V104.432C293.255 83.9141 292.111 72.106 289.821 69.0081C287.149 63.6653 281.807 60.9938 273.792 60.9938H268.943C256.933 60.9938 249.604 66.5163 246.955 77.5611C246.191 80.008 245.518 86.0131 244.934 95.5763ZM269.819 78.4366H271.806C274.567 78.4366 276.374 82.4325 277.227 90.4243C277.047 98.2814 276.958 104.668 276.958 109.584V114.433C276.958 117.284 274.769 118.71 270.391 118.71H267.529C264.678 118.485 263.253 117.06 263.253 114.433C263.253 112.413 263.342 110.797 263.522 109.584C263.342 104.825 263.253 100.448 263.253 96.4518V90.9967C263.253 84.509 264.869 80.4121 268.102 78.706L269.819 78.4366Z" fill="white"/>
<path d="M345.247 56.1449C353.329 56.1449 359.614 57.952 364.104 61.5663C367.606 65.0459 370.188 70.6693 371.849 78.4366C372.612 80.7039 373.274 86.4172 373.836 95.5763C373.836 100.919 371.265 106.823 366.124 113.288L358.683 120.427C361.893 129.092 365.327 136.624 368.987 143.022C371.074 146.053 372.118 148.814 372.118 151.306C372.118 155.706 370.603 158.938 367.572 161.003L363.565 165.044C361.994 166.93 358.84 167.873 354.103 167.873C349.479 168.075 346.818 168.176 346.122 168.176C341.004 168.176 337.379 164.932 335.246 158.444V158.175C334.573 158.848 333.226 161.172 331.205 165.145C329.634 166.964 326.603 167.873 322.113 167.873C320.093 168.254 318.095 168.445 316.12 168.445C308.689 166.919 304.974 165.302 304.974 163.596C303.066 163.304 302.112 153.775 302.112 135.008L301.539 122.448C301.719 112.727 301.808 104.152 301.808 96.7212V74.4295C301.808 70.2989 303.054 67.3469 305.546 65.5734L310.26 60.9265C312.393 58.3 314.919 56.9867 317.837 56.9867C317.837 56.6724 319.072 56.4816 321.541 56.4143C325.245 56.4143 333.147 56.3245 345.247 56.1449ZM321.844 61.2969H320.396C316.58 61.2969 314.672 62.5316 314.672 65.001C314.672 72.4091 314.582 79.0764 314.402 85.0029C314.582 91.4906 314.672 95.1161 314.672 95.8794C314.492 104.387 314.402 109.91 314.402 112.447C314.851 139.295 315.513 152.72 316.389 152.72C316.389 153.483 318.769 154.437 323.528 155.582H324.403C330.105 155.582 332.956 154.819 332.956 153.292C333.338 151.496 333.529 150.071 333.529 149.016V142.719C333.529 135.85 333.248 129.665 332.687 124.165C333.136 121.875 333.989 120.73 335.246 120.73C337.154 120.73 340.398 127.779 344.978 141.877C346.504 145.379 347.739 148.713 348.682 151.878C350.208 154.168 351.925 155.313 353.834 155.313H359.558C364.497 155.313 366.966 154.639 366.966 153.292C367.168 153.292 367.269 153.202 367.269 153.023V150.161C366.237 147.736 363.565 142.595 359.255 134.738C355.439 125.647 353.531 120.304 353.531 118.71C353.935 117.408 355.843 115.702 359.255 113.591C365.743 107.216 368.987 101.312 368.987 95.8794C368.987 80.4345 365.934 69.8611 359.827 64.1591C356.011 61.8693 349.827 60.7245 341.274 60.7245C336.784 61.1061 330.307 61.2969 321.844 61.2969ZM339.253 76.4499C345.045 76.4499 348.861 77.7744 350.702 80.4233C352.027 83.5437 352.689 87.4498 352.689 92.1416C352.689 98.0906 350.59 101.615 346.392 102.715L341.846 103.287C335.74 103.287 332.687 101.761 332.687 98.7079C331.744 92.8488 331.273 87.0457 331.273 81.2988C331.273 78.0662 333.933 76.4499 339.253 76.4499ZM336.391 89.8518C336.593 92.3212 336.885 95.0824 337.266 98.1355H338.411L339.826 98.4385V98.1355C339.826 92.613 338.681 89.8518 336.391 89.8518Z" fill="white"/>
<path d="M398.08 55.8755H400.37C424.772 55.8755 440.116 63.9683 446.401 80.1539C450.397 89.8967 452.395 98.562 452.395 106.15V107.598C452.395 123.357 447.917 137.073 438.96 148.746C437.298 151.822 434.492 155.425 430.541 159.556C424.996 165.684 414.749 168.748 399.798 168.748C390.234 168.748 384.431 167.693 382.389 165.583C380.278 163.563 379.223 160.33 379.223 155.885V149.016C379.223 141.159 378.651 121.157 377.506 89.01C377.506 82.4998 377.416 78.5937 377.237 77.2917C377.82 72.757 379.246 69.2326 381.513 66.7183L384.207 63.3846C386.721 60.6459 389.258 58.6143 391.817 57.2898C393.77 56.3469 395.858 55.8755 398.08 55.8755ZM390.1 69.0081C390.1 74.6652 390.762 97.6191 392.086 137.87V149.588C392.086 153.405 394.084 155.313 398.08 155.313C399.36 155.694 402.514 155.885 407.543 155.885H409.226C422.426 155.885 431.383 152.069 436.097 144.436C438.432 142.057 441.003 137.488 443.809 130.731C446.48 121.886 447.816 114.074 447.816 107.295C447.816 95.4416 444.011 83.7233 436.401 72.1397C428.521 64.5295 417.083 60.7245 402.087 60.7245H396.666C393.074 60.7245 390.885 63.4857 390.1 69.0081ZM413.536 80.7264C418.812 80.7264 422.617 88.3478 424.952 103.591C425.154 105.566 425.255 107.182 425.255 108.439C425.255 115.264 422.774 124.03 417.813 134.738C417.813 134.873 417.05 135.636 415.523 137.028H413.233C411.527 137.028 410.674 127.689 410.674 109.012V88.7069C410.674 83.3866 411.628 80.7264 413.536 80.7264Z" fill="white"/>
<path d="M490.918 55.3031H498.056C509.191 55.3031 517.475 60.9153 522.907 72.1397C524.636 80.6254 525.5 86.5294 525.5 89.8518C525.5 123.211 523.019 143.123 518.058 149.588C515.566 154.998 512.379 159.746 508.495 163.832C504.858 166.908 498.898 168.445 490.614 168.445C476.696 168.445 468.031 165.213 464.619 158.747C461.543 155.268 458.872 147.164 456.604 134.435C456.043 131.719 455.763 128.486 455.763 124.737V109.012C455.763 89.3018 458.524 76.9213 464.046 71.8703C465.101 70.1417 466.998 68.0652 469.737 65.6408C472.319 61.6898 476.808 58.6143 483.206 56.4143C486.619 55.6735 489.189 55.3031 490.918 55.3031ZM468.323 105.577C468.323 119.585 469.187 128.823 470.916 133.29C470.916 135.85 472.442 140.429 475.495 147.029C478.952 151.788 482.286 154.168 485.496 154.168C486.17 154.931 490.547 155.402 498.629 155.582H498.898C508.91 155.582 515.297 149.106 518.058 136.153C519.764 126.41 520.617 110.785 520.617 89.2794C520.617 82.7468 519.383 76.4611 516.913 70.4224C512.693 63.3734 505.262 59.849 494.622 59.849H493.78C481.006 59.849 473.284 65.4724 470.613 76.7193C469.086 84.1498 468.323 93.7692 468.323 105.577ZM493.78 75.8774H494.622C498.528 75.8774 501.289 79.6825 502.905 87.2927C503.287 93.0171 503.668 103.209 504.05 117.868C503.332 125.68 502.288 130.821 500.918 133.29C499.055 135.962 496.866 137.297 494.352 137.297C489.93 137.297 487.169 129.485 486.069 113.861C485.754 113.861 485.462 109.483 485.193 100.728C485.193 88.359 487 80.4458 490.614 76.9886C491.625 76.2478 492.68 75.8774 493.78 75.8774ZM490.042 96.7212V101.57C490.042 103.186 490.233 107.665 490.614 115.006H490.918V112.716C490.536 102.906 490.345 97.5742 490.345 96.7212H490.042Z" fill="white"/>
</svg>
